{
	"asset":{
		"generator":"Khronos glTF Blender I/O v4.0.44",
		"version":"2.0"
	},
	"scene":0,
	"scenes":[
		{
			"name":"Scene",
			"nodes":[
				0
			]
		}
	],
	"nodes":[
		{
			"mesh":0,
			"name":"Cube",
			"rotation":[
				0.7071068286895752,
				0,
				0,
				0.7071068286895752
			],
			"scale":[
				1.6906007528305054,
				0.3341791331768036,
				1
			]
		}
	],
	"materials":[
		{
			"doubleSided":true,
			"name":"Material",
			"pbrMetallicRoughness":{
				"baseColorFactor":[
					0.800000011920929,
					0.800000011920929,
					0.800000011920929,
					1
				],
				"metallicFactor":0,
				"roughnessFactor":0.5
			}
		}
	],
	"meshes":[
		{
			"name":"Cube",
			"primitives":[
				{
					"attributes":{
						"POSITION":0,
						"NORMAL":1,
						"TEXCOORD_0":2
					},
					"indices":3,
					"material":0
				}
			]
		}
	],
	"accessors":[
		{
			"bufferView":0,
			"componentType":5126,
			"count":119,
			"max":[
				2.832357168197632,
				2.5593254566192627,
				3.377411127090454
			],
			"min":[
				-2.832357168197632,
				-1,
				-2.0480034351348877
			],
			"type":"VEC3"
		},
		{
			"bufferView":1,
			"componentType":5126,
			"count":119,
			"type":"VEC3"
		},
		{
			"bufferView":2,
			"componentType":5126,
			"count":119,
			"type":"VEC2"
		},
		{
			"bufferView":3,
			"componentType":5123,
			"count":192,
			"type":"SCALAR"
		}
	],
	"bufferViews":[
		{
			"buffer":0,
			"byteLength":1428,
			"byteOffset":0,
			"target":34962
		},
		{
			"buffer":0,
			"byteLength":1428,
			"byteOffset":1428,
			"target":34962
		},
		{
			"buffer":0,
			"byteLength":952,
			"byteOffset":2856,
			"target":34962
		},
		{
			"buffer":0,
			"byteLength":384,
			"byteOffset":3808,
			"target":34963
		}
	],
	"buffers":[
		{
			"byteLength":4192,
			"uri":"jokuh_ship_y.bin"
		}
	]
}
